<svg xmlns="http://www.w3.org/2000/svg" width="512" height="512">
  <!-- Rounded black background -->
  <rect width="100%" height="100%" fill="black" rx="90" ry="90"/>

  <!-- Scaled-up icon to fill most of the rounded square -->
  <g transform="translate(90,80) scale(5.6)">
    <path d="M48.67 42.3779L47.3669 43.0352C47.7367 42.7211 48.1769 42.4943 48.67 42.3779Z" fill="white"/>
    <path d="M41.0218 46.2169L33.1391 50.1546C32.4113 50.521 31.5426 49.9917 31.5426 49.1774V28.0524C31.5426 26.7611 30.8148 25.5862 29.6585 24.9988L10.788 15.4716V15.4483L3.71529 11.8887C2.10704 11.086 0.199458 12.2318 0.187719 14.0233L-0.000105336 45.4142C-0.0118443 46.7113 0.721843 47.8978 1.884 48.4853L29.5763 62.4853C30.8089 63.1076 32.2704 63.1076 33.503 62.4853L41.0746 58.6697C41.7085 58.3498 42.1135 57.7042 42.1135 57.0004V46.8799C42.1135 46.3216 41.5207 45.9551 41.0218 46.2111V46.2169ZM20.8307 43.3378C20.819 44.344 19.7449 44.9954 18.841 44.5359L11.9208 41.0403C11.2282 40.6913 10.788 39.9817 10.788 39.2082V30.2684C10.788 29.2563 11.8621 28.5991 12.7719 29.0586L19.7449 32.56C20.4492 32.9148 20.8836 33.6303 20.8836 34.4096L20.8307 43.3436V43.3378Z" fill="white"/>
    <path d="M63.0854 37.8411L63.0502 46.1062C63.0502 47.0484 62.5102 47.9034 61.6592 48.3338L55.0149 51.6724C53.8938 52.2308 52.579 51.4282 52.579 50.1893V45.4315C52.579 43.6982 51.1645 42.2848 49.4095 42.2848C49.1571 42.2848 48.9106 42.3139 48.67 42.3721C48.1828 42.4884 47.7367 42.7152 47.3669 43.0293L44.0331 44.7044C43.1585 45.1465 42.1137 44.5125 42.1137 43.5353V22.4568C42.1137 21.3459 41.4857 20.328 40.482 19.8278L12.8543 5.93833C11.8858 5.45557 11.8917 4.07709 12.866 3.60015L19.3049 0.430229C20.4905 -0.151408 21.8874 -0.145592 23.0672 0.453494L50.7125 14.4477C51.8571 15.0235 52.579 16.1926 52.579 17.4606V35.3633C52.579 37.0966 53.9936 38.51 55.7486 38.51C56.0538 38.51 56.3473 38.4693 56.629 38.3879C57.0105 38.2773 57.3568 38.1029 57.6679 37.8644L60.6613 36.3638C61.7765 35.7996 63.0972 36.6139 63.0972 37.8527L63.0854 37.8411Z" fill="white"/>
  </g>
</svg>

