<svg width="282" height="70" viewBox="0 0 282 70" fill="none" xmlns="http://www.w3.org/2000/svg">
<g clip-path="url(#clip0_29_1885)">
<path d="M102.628 55.6336C97.6392 55.6336 93.2194 54.4761 89.3632 52.1554C85.5069 49.8347 82.5017 46.6008 80.3418 42.4479C78.1818 38.295 77.1018 33.4442 77.1018 27.8895C77.1018 22.3349 78.1818 17.4084 80.3418 13.2555C82.5017 9.10265 85.4952 5.86874 89.328 3.54801C93.1549 1.2331 97.5922 0.0698242 102.628 0.0698242C107.664 0.0698242 112.266 1.22728 116.122 3.54801C119.978 5.86874 122.984 9.10265 125.144 13.2555C127.304 17.4084 128.384 22.2884 128.384 27.8895C128.384 33.4907 127.292 38.295 125.108 42.4479C122.925 46.6008 119.902 49.8347 116.046 52.1554C112.19 54.4761 107.717 55.6336 102.628 55.6336ZM102.705 46.7695C106.044 46.7695 108.914 45.9959 111.303 44.4371C113.692 42.8841 115.559 40.6913 116.897 37.8646C118.235 35.0378 118.904 31.7109 118.904 27.8895C118.904 24.0682 118.235 20.6656 116.897 17.8388C115.559 15.0121 113.698 12.8193 111.303 11.2663C108.914 9.71336 106.021 8.93397 102.628 8.93397C99.2357 8.93397 96.5475 9.69591 94.1057 11.2256C91.664 12.7553 89.7858 14.9306 88.4769 17.7574C87.168 20.5842 86.5106 23.9635 86.5106 27.8837C86.5106 31.8039 87.168 35.1076 88.4769 37.9344C89.7858 40.7611 91.664 42.9423 94.1057 44.4662C96.5475 45.9959 99.4118 46.7578 102.705 46.7578V46.7695ZM125.531 58.6116L103.708 37.7483L109.184 31.9377L131.16 53.1849L125.531 58.6116Z" fill="white"/>
<path d="M135.48 69.9998L143.116 51.812L128.695 16.8149H138.567L147.9 42.8723L157.385 16.8149H167.099L145.276 69.9998H135.48Z" fill="white"/>
<path d="M183.598 55.1741C179.947 55.1741 176.684 54.3308 173.802 52.6498C170.92 50.9689 168.66 48.6482 167.016 45.6935C165.373 42.7387 164.551 39.3769 164.551 35.6079C164.551 31.8389 165.373 28.477 167.016 25.5223C168.66 22.5676 170.926 20.2643 173.802 18.6066C176.678 16.9548 179.947 16.123 183.598 16.123C187.249 16.123 190.565 16.949 193.394 18.6066C196.223 20.2643 198.459 22.5676 200.103 25.5223C201.746 28.477 202.568 31.8389 202.568 35.6079C202.568 39.3769 201.746 42.7387 200.103 45.6935C198.459 48.6482 196.205 50.9689 193.353 52.6498C190.5 54.3308 187.249 55.1741 183.598 55.1741ZM183.598 47.3802C185.652 47.3802 187.425 46.8975 188.921 45.9261C190.412 44.9606 191.557 43.5938 192.355 41.8372C193.153 40.0807 193.552 38.0042 193.552 35.6079C193.552 33.2115 193.153 31.0769 192.355 29.3437C191.557 27.6104 190.412 26.2726 188.921 25.3304C187.431 24.3881 185.658 23.917 183.598 23.917C181.538 23.917 179.689 24.3881 178.198 25.3304C176.707 26.2726 175.562 27.6104 174.764 29.3437C173.966 31.0769 173.567 33.165 173.567 35.6079C173.567 38.0508 173.966 40.0807 174.764 41.8372C175.562 43.5938 176.707 44.9606 178.198 45.9261C179.689 46.8975 181.485 47.3802 183.598 47.3802Z" fill="white"/>
<path d="M223.933 55.1741C220.282 55.1741 217.019 54.3308 214.137 52.6498C211.255 50.9689 208.995 48.6482 207.352 45.6935C205.708 42.7387 204.886 39.3769 204.886 35.6079C204.886 31.8389 205.708 28.477 207.352 25.5223C208.995 22.5676 211.261 20.2643 214.137 18.6066C217.013 16.9548 220.282 16.123 223.933 16.123C227.584 16.123 230.9 16.949 233.729 18.6066C236.558 20.2643 238.795 22.5676 240.438 25.5223C242.081 28.477 242.903 31.8389 242.903 35.6079C242.903 39.3769 242.081 42.7387 240.438 45.6935C238.795 48.6482 236.541 50.9689 233.688 52.6498C230.836 54.3308 227.584 55.1741 223.933 55.1741ZM223.933 47.3802C225.987 47.3802 227.76 46.8975 229.257 45.9261C230.747 44.9606 231.892 43.5938 232.69 41.8372C233.489 40.0807 233.888 38.0042 233.888 35.6079C233.888 33.2115 233.489 31.0769 232.69 29.3437C231.892 27.6104 230.747 26.2726 229.257 25.3304C227.766 24.3881 225.993 23.917 223.933 23.917C221.873 23.917 220.024 24.3881 218.533 25.3304C217.042 26.2726 215.898 27.6104 215.099 29.3437C214.301 31.0769 213.902 33.165 213.902 35.6079C213.902 38.0508 214.301 40.0807 215.099 41.8372C215.898 43.5938 217.042 44.9606 218.533 45.9261C220.024 46.8975 221.82 47.3802 223.933 47.3802Z" fill="white"/>
<path d="M265.571 55.1743C263.564 55.1743 261.662 54.7904 259.866 54.0285C258.064 53.2666 256.497 52.016 255.165 50.2828C253.826 48.5495 252.823 46.2578 252.16 43.4078L254.396 44.1698V54.488H245.451V1.22168H254.396V27.2034L252.471 27.4302C252.934 24.9874 253.809 22.9226 255.094 21.2416C256.38 19.5607 257.923 18.2869 259.719 17.4203C261.515 16.5536 263.47 16.1232 265.583 16.1232C268.618 16.1232 271.365 16.9026 273.836 18.4556C276.301 20.0086 278.285 22.2362 279.776 25.1444C281.266 28.0468 282.012 31.5366 282.012 35.6139C282.012 39.3305 281.343 42.6691 280.004 45.6238C278.666 48.5786 276.764 50.9109 274.299 52.6151C271.834 54.3251 268.929 55.1743 265.583 55.1743H265.571ZM263.259 46.9965C265.213 46.9965 266.91 46.5254 268.348 45.5831C269.786 44.6409 270.907 43.3147 271.705 41.6105C272.503 39.9064 272.902 37.9055 272.902 35.6139C272.902 33.3222 272.503 31.3214 271.705 29.6172C270.907 27.913 269.791 26.5869 268.348 25.6446C266.91 24.7024 265.213 24.2312 263.259 24.2312C261.304 24.2312 259.608 24.7024 258.17 25.6446C256.732 26.5869 255.611 27.913 254.813 29.6172C254.014 31.3272 253.615 33.3222 253.615 35.6139C253.615 37.9055 254.014 39.9064 254.813 41.6105C255.611 43.3206 256.726 44.6409 258.17 45.5831C259.608 46.5254 261.304 46.9965 263.259 46.9965Z" fill="white"/>
<path d="M48.67 42.3779L47.3669 43.0352C47.7367 42.7211 48.1769 42.4943 48.67 42.3779Z" fill="white"/>
<path d="M41.0218 46.2169L33.1391 50.1546C32.4113 50.521 31.5426 49.9917 31.5426 49.1774V28.0524C31.5426 26.7611 30.8148 25.5862 29.6585 24.9988L10.788 15.4716V15.4483L3.71529 11.8887C2.10704 11.086 0.199458 12.2318 0.187719 14.0233L-0.000105336 45.4142C-0.0118443 46.7113 0.721843 47.8978 1.884 48.4853L29.5763 62.4853C30.8089 63.1076 32.2704 63.1076 33.503 62.4853L41.0746 58.6697C41.7085 58.3498 42.1135 57.7042 42.1135 57.0004V46.8799C42.1135 46.3216 41.5207 45.9551 41.0218 46.2111V46.2169ZM20.8307 43.3378C20.819 44.344 19.7449 44.9954 18.841 44.5359L11.9208 41.0403C11.2282 40.6913 10.788 39.9817 10.788 39.2082V30.2684C10.788 29.2563 11.8621 28.5991 12.7719 29.0586L19.7449 32.56C20.4492 32.9148 20.8836 33.6303 20.8836 34.4096L20.8307 43.3436V43.3378Z" fill="white"/>
<path d="M63.0854 37.8411L63.0502 46.1062C63.0502 47.0484 62.5102 47.9034 61.6592 48.3338L55.0149 51.6724C53.8938 52.2308 52.579 51.4282 52.579 50.1893V45.4315C52.579 43.6982 51.1645 42.2848 49.4095 42.2848C49.1571 42.2848 48.9106 42.3139 48.67 42.3721C48.1828 42.4884 47.7367 42.7152 47.3669 43.0293L44.0331 44.7044C43.1585 45.1465 42.1137 44.5125 42.1137 43.5353V22.4568C42.1137 21.3459 41.4857 20.328 40.482 19.8278L12.8543 5.93833C11.8858 5.45557 11.8917 4.07709 12.866 3.60015L19.3049 0.430229C20.4905 -0.151408 21.8874 -0.145592 23.0672 0.453494L50.7125 14.4477C51.8571 15.0235 52.579 16.1926 52.579 17.4606V35.3633C52.579 37.0966 53.9936 38.51 55.7486 38.51C56.0538 38.51 56.3473 38.4693 56.629 38.3879C57.0105 38.2773 57.3568 38.1029 57.6679 37.8644L60.6613 36.3638C61.7765 35.7996 63.0972 36.6139 63.0972 37.8527L63.0854 37.8411Z" fill="white"/>
<path d="M57.6619 37.8589C57.3567 38.0974 57.0046 38.2718 56.623 38.3824L57.6619 37.8589Z" fill="white"/>
</g>
<defs>
<clipPath id="clip0_29_1885">
<rect width="282" height="70" fill="white"/>
</clipPath>
</defs>
</svg>
